<svg width="689" height="59" viewBox="0 0 689 59" fill="none" xmlns="http://www.w3.org/2000/svg">
<path d="M0.109375 57.655H11.5412V32.3416H20.1151C31.9553 32.3416 35.2215 29.4836 35.2215 20.0932V15.1938H23.7896V18.8684C23.7896 24.176 22.1565 24.176 17.2572 24.176H11.5412V15.1938H0.109375V57.655Z" fill="white"/>
<path d="M47.4157 36.4244C47.4157 28.7487 50.3553 22.5429 57.6227 22.5429C64.8901 22.5429 67.8297 28.7487 67.8297 36.4244C67.8297 44.1001 64.8901 50.306 57.6227 50.306C50.3553 50.306 47.4157 44.1001 47.4157 36.4244ZM35.9838 36.4244C35.9838 48.8361 43.6595 58.8798 57.6227 58.8798C71.5859 58.8798 79.2616 48.8361 79.2616 36.4244C79.2616 24.0127 71.5859 13.969 57.6227 13.969C43.6595 13.969 35.9838 24.0127 35.9838 36.4244Z" fill="white"/>
<path d="M107.867 57.655H119.299V35.6079C119.299 27.034 121.912 23.3594 126.811 23.3594C131.302 23.3594 132.772 26.6257 132.772 33.9747V57.655H144.204V31.525C144.204 21.7263 141.346 13.969 130.73 13.969C122.157 13.969 118.482 22.1346 118.482 22.1346H118.074L117.992 22.2163C116.359 17.2352 112.684 13.969 105.825 13.969C97.2514 13.969 94.3935 22.1346 94.3935 22.1346H93.9852V15.1938H82.9616V57.655H94.3935V35.6079C94.3935 27.034 97.0065 23.3594 101.906 23.3594C106.397 23.3594 107.867 26.6257 107.867 33.9747V57.655Z" fill="white"/>
<path d="M160.111 28.2588C160.274 23.6861 162.969 21.7263 167.868 21.7263C172.359 21.7263 174.809 23.6861 174.809 27.034C174.809 31.77 168.113 32.3416 161.009 34.138C153.986 35.9345 147.454 39.5274 147.454 47.448C147.454 55.287 153.17 58.8798 160.927 58.8798C171.788 58.8798 174.401 49.4894 174.401 49.4894H174.809V57.655H186.241V28.6671C186.241 17.6435 178.075 13.969 167.868 13.969C158.069 13.969 149.332 17.3985 148.679 28.2588H160.111ZM174.809 36.2611C174.809 42.5486 172.767 51.5308 165.01 51.5308C161.336 51.5308 159.049 49.4894 159.049 46.2232C159.049 42.467 162.152 40.5889 165.827 39.6907C169.093 38.8741 172.931 37.9759 174.809 36.2611Z" fill="white"/>
<path d="M190.295 57.655H201.727V35.6079C201.727 27.034 204.993 23.3594 211.117 23.3594C216.425 23.3594 218.466 26.6257 218.466 33.9747V57.655H229.898V31.525C229.898 21.7263 226.632 13.969 214.792 13.969C205.401 13.969 201.727 22.1346 201.727 22.1346H201.318V15.1938H190.295V57.655Z" fill="white"/>
<path d="M296.071 0.495728H284.639V19.6849H284.231C284.231 19.6849 280.557 13.969 271.574 13.969C259.326 13.969 253.202 24.5843 253.202 36.4244C253.202 48.2646 259.326 58.8798 271.574 58.8798C280.965 58.8798 284.639 51.9391 284.639 51.9391H285.048V57.655H296.071V0.495728ZM285.048 36.4244C285.048 44.1001 281.781 50.306 274.841 50.306C267.9 50.306 264.634 44.1001 264.634 36.4244C264.634 28.7487 267.9 22.5429 274.841 22.5429C281.781 22.5429 285.048 28.7487 285.048 36.4244Z" fill="white"/>
<path d="M339.783 15.1938H328.351V37.241C328.351 45.8149 325.085 49.4894 318.961 49.4894C313.653 49.4894 311.611 46.2232 311.611 38.8741V15.1938H300.18V41.3238C300.18 51.1225 303.446 58.8798 315.286 58.8798C324.676 58.8798 328.351 50.7142 328.351 50.7142H328.759V57.655H339.783V15.1938Z" fill="white"/>
<path d="M343.878 57.655H355.31V35.6079C355.31 27.034 358.576 23.3594 364.701 23.3594C370.008 23.3594 372.05 26.6257 372.05 33.9747V57.655H383.482V31.525C383.482 21.7263 380.215 13.969 368.375 13.969C358.985 13.969 355.31 22.1346 355.31 22.1346H354.902V15.1938H343.878V57.655Z" fill="white"/>
<path d="M387.169 36.4244C387.169 48.8361 394.11 58.8798 408.399 58.8798C425.956 58.8798 428.405 43.7735 428.405 43.7735H416.973C416.973 43.7735 415.749 50.306 408.808 50.306C401.949 50.306 399.172 45.4066 398.682 38.8741H428.732C428.732 38.8741 428.813 37.4043 428.813 36.4244C428.813 24.0127 422.363 13.969 408.399 13.969C394.436 13.969 387.169 24.0127 387.169 36.4244ZM408.399 22.5429C414.034 22.5429 416.32 26.2991 417.055 31.525H399.009C399.989 26.2991 402.765 22.5429 408.399 22.5429Z" fill="white"/>
<path d="M431.665 43.7735C431.665 48.6728 434.931 58.8798 451.671 58.8798C463.919 58.8798 470.86 52.7556 470.86 44.59C470.86 28.6671 443.913 33.9747 443.913 26.6257C443.913 24.0127 446.363 21.7263 450.854 21.7263C458.612 21.7263 458.612 27.4422 458.612 27.4422H469.635C469.635 23.3594 467.185 13.969 450.854 13.969C439.422 13.969 432.482 20.0932 432.482 27.4422C432.482 43.7735 459.428 36.8327 459.428 45.8149C459.428 48.2646 457.795 51.1225 451.671 51.1225C442.689 51.1225 442.689 43.7735 442.689 43.7735H431.665Z" fill="white"/>
<path d="M501.851 57.655H513.283V15.1938H501.851V31.9333H485.928V15.1938H474.496V57.655H485.928V40.9155H501.851V57.655Z" fill="white"/>
<path d="M516.989 36.4244C516.989 48.8361 523.93 58.8798 538.22 58.8798C555.776 58.8798 558.226 43.7735 558.226 43.7735H546.794C546.794 43.7735 545.569 50.306 538.628 50.306C531.769 50.306 528.993 45.4066 528.503 38.8741H558.552C558.552 38.8741 558.634 37.4043 558.634 36.4244C558.634 24.0127 552.183 13.969 538.22 13.969C524.257 13.969 516.989 24.0127 516.989 36.4244ZM538.22 22.5429C543.854 22.5429 546.141 26.2991 546.875 31.525H528.829C529.809 26.2991 532.586 22.5429 538.22 22.5429Z" fill="white"/>
<path d="M562.293 57.655H573.724V35.6079C573.724 27.034 576.991 23.3594 583.115 23.3594C588.423 23.3594 590.464 26.6257 590.464 33.9747V57.655H601.896V31.525C601.896 21.7263 598.63 13.969 586.789 13.969C577.399 13.969 573.724 22.1346 573.724 22.1346H573.316V15.1938H562.293V57.655Z" fill="white"/>
<path d="M605.991 57.655H617.423V44.7533L622.078 39.9356L632.856 57.655H646.819L629.998 31.77L646.003 15.1938H632.53L617.423 32.3416V15.1938H605.991V57.655Z" fill="white"/>
<path d="M656.248 36.4244C656.248 28.7487 659.188 22.5429 666.455 22.5429C673.722 22.5429 676.662 28.7487 676.662 36.4244C676.662 44.1001 673.722 50.306 666.455 50.306C659.188 50.306 656.248 44.1001 656.248 36.4244ZM644.816 36.4244C644.816 48.8361 652.492 58.8798 666.455 58.8798C680.418 58.8798 688.094 48.8361 688.094 36.4244C688.094 24.0127 680.418 13.969 666.455 13.969C652.492 13.969 644.816 24.0127 644.816 36.4244Z" fill="white"/>
</svg>
